<?xml version="1.0" encoding="UTF-8"?>
<svg width="2003px" height="453px" viewBox="0 0 2003 453" version="1.1"
    xmlns="http://www.w3.org/2000/svg" xmlns:xlink="http://www.w3.org/1999/xlink">
    <title>logo</title>
    <defs>
        <linearGradient x1="50%" y1="58.8539057%" x2="50%" y2="158.853906%" id="linearGradient-1">
            <stop stop-color="#FEFEFE" offset="0%"></stop>
            <stop stop-color="#FEFEFE" offset="52.5895979%"></stop>
            <stop stop-color="#FEFEFE" offset="100%"></stop>
        </linearGradient>
    </defs>
    <g id="Page-1" stroke="none" stroke-width="1" fill="none" fill-rule="evenodd">
        <g id="logo">
            <g id="mini-functions" transform="translate(0.000000, 0.000000)">
                <path
                    d="M113.079609,0 C50.732794,0 0,50.7311357 0,113.057867 L0,339.260434 C0,401.563828 50.7311659,452.274883 113.079609,452.274883 L339.260427,452.274883 C401.563825,452.274883 452.274883,401.564913 452.274883,339.238725 L452.274883,113.057867 C452.274883,50.7327638 401.56491,0 339.238718,0 L113.079609,0 Z"
                    id="terminal" fill="#2F3A3E"></path>
                <path
                    d="M328.316428,191.253781 L327.451337,191.253781 C327.451337,135.462054 282.00515,90.0158694 226.213419,90.0158694 C170.421689,90.0158694 124.975502,135.462054 124.975502,191.253781 L124.110411,191.253781 C110.021834,191.253781 98.7979114,202.758416 98.7979114,216.566279 L98.7979114,337.658314 C98.7979114,351.74689 110.302547,362.970812 124.110411,362.970812 L328.317693,362.970812 C342.40627,362.970812 353.630193,351.466177 353.630193,337.658314 L353.630193,216.566279 C353.91107,202.477703 342.406558,191.253781 328.317693,191.253781 L328.316428,191.253781 Z M247.49061,314.928607 C248.063599,316.939674 247.49061,319.242845 246.344633,320.973142 C244.906554,322.703324 242.895544,323.557198 240.884533,323.557198 L211.539084,323.557198 C209.235913,323.557198 207.517063,322.692107 206.078984,320.973142 C204.640904,319.24296 204.348802,316.951122 204.933007,314.928607 L214.415415,278.404267 C206.35987,274.090029 200.89977,265.75377 200.89977,255.967928 C200.89977,241.879352 212.404405,230.65543 226.212269,230.65543 C240.020133,230.65543 251.524768,242.160065 251.524768,255.967928 C251.524768,265.742266 246.064668,274.090029 238.009122,278.404267 L247.49061,314.928607 Z M292.936797,191.253781 L159.488776,191.253781 C159.488776,154.436073 189.395076,124.529774 226.212787,124.529774 C263.030497,124.529774 292.936797,154.436073 292.936797,191.253781 Z"
                    id="Shape" fill="url(#linearGradient-1)" fill-rule="nonzero"></path>
            </g>
            <g id="mini-functions-P" transform="translate(567.406238, 32.782536)" fill="#2F3A3E"
                fill-rule="nonzero">
                <path
                    d="M1.12081544,138.233904 L1.12081544,1.86802573 L47.6346561,1.86802573 C57.2238549,1.86802573 65.5939723,3.66210878 72.7450083,7.25027487 C79.8960443,10.838441 85.437854,15.8821104 89.3704373,22.3812833 C93.3030206,28.8804562 95.2693123,36.4907151 95.2693123,45.2120603 C95.2693123,53.8010869 93.2767515,61.3646453 89.29163,67.9027353 C85.3065084,74.4408254 79.774428,79.5156286 72.6953889,83.127145 C65.6163497,86.7386615 57.2627721,88.5444197 47.6346561,88.5444197 L29.1412014,88.5444197 L29.1412014,138.233904 L1.12081544,138.233904 Z M29.1412014,64.2600852 L47.6346561,64.2600852 C53.5695296,64.2600852 58.322293,62.454327 61.8929463,58.8428105 C65.4635997,55.2312941 67.2489263,50.7081422 67.2489263,45.2733549 C67.2489263,39.7490579 65.4635997,35.1811513 61.8929463,31.5696349 C58.322293,27.9581184 53.5695296,26.1523602 47.6346561,26.1523602 L29.1412014,26.1523602 L29.1412014,64.2600852 Z"
                    id="Shape"></path>
                <path
                    d="M105.543454,138.233904 L138.981114,1.86802573 L174.473603,1.86802573 L208.284869,138.233904 L179.704075,138.233904 L173.165985,107.41148 L140.662338,107.41148 L134.124248,138.233904 L105.543454,138.233904 Z M145.332402,84.9951708 L168.309118,84.9951708 L161.771028,52.1179179 C160.899283,47.3855861 159.996404,42.684388 159.062391,38.0143236 C158.128378,33.3442593 157.412302,29.7016091 156.914161,27.0863731 C156.416021,29.7016091 155.762212,33.3131255 154.952734,37.9209223 C154.143257,42.5287191 153.240377,47.1987835 152.244097,51.9311153 L145.332402,84.9951708 Z"
                    id="Shape"></path>
                <path
                    d="M268.995705,140.10193 C259.406507,140.10193 251.062658,138.482974 243.964161,135.245063 C236.865663,132.007152 231.386121,127.461622 227.525534,121.608475 C223.664948,115.755328 221.734654,108.843633 221.734654,100.873389 L249.75504,100.873389 C249.75504,105.481186 251.529665,109.123836 255.078914,111.80134 C258.628163,114.478844 263.453896,115.817595 269.556113,115.817595 C275.40926,115.817595 279.985923,114.509977 283.286102,111.894741 C286.586281,109.279505 288.23637,105.667989 288.23637,101.060192 C288.23637,97.0750705 286.99102,93.6503567 284.500319,90.7860505 C282.009618,87.9217444 278.522637,85.9914512 274.039375,84.9951708 L260.215984,81.819527 C248.634225,79.079756 239.636568,74.0049527 233.223013,66.5951173 C226.809458,59.1852819 223.60268,50.1253571 223.60268,39.4153429 C223.60268,27.4599783 227.650069,17.9019133 235.744847,10.741148 C243.839625,3.58038265 254.79871,0 268.6221,0 C282.570026,0 293.622511,3.4558476 301.779557,10.3675428 C309.936603,17.279238 314.015125,26.5882329 314.015125,38.2945275 L285.994739,38.2945275 C285.994739,33.9358008 284.469185,30.5110869 281.418076,28.020386 C278.366968,25.529685 273.977107,24.2843345 268.248495,24.2843345 C262.893488,24.2843345 258.783831,25.529685 255.919525,28.020386 C253.055219,30.5110869 251.623066,34.1848709 251.623066,39.0417378 C251.623066,42.6532542 252.837283,45.8600317 255.265716,48.6620703 C257.69415,51.4641089 261.212265,53.3632684 265.820062,54.3595488 L279.456649,57.5351925 C291.536549,60.2749636 300.689875,65.2252318 306.916628,72.3859971 C313.14338,79.5467624 316.256756,88.6689547 316.256756,99.7525741 C316.256756,107.722817 314.295329,114.759047 310.372475,120.861265 C306.449621,126.963482 300.970079,131.695814 293.933849,135.05826 C286.897619,138.420707 278.584904,140.10193 268.995705,140.10193 Z"
                    id="Path"></path>
                <path
                    d="M381.077249,140.10193 C371.48805,140.10193 363.144202,138.482974 356.045704,135.245063 C348.947207,132.007152 343.467664,127.461622 339.607078,121.608475 C335.746491,115.755328 333.816198,108.843633 333.816198,100.873389 L361.836584,100.873389 C361.836584,105.481186 363.611209,109.123836 367.160457,111.80134 C370.709706,114.478844 375.53544,115.817595 381.637657,115.817595 C387.490804,115.817595 392.067467,114.509977 395.367646,111.894741 C398.667825,109.279505 400.317914,105.667989 400.317914,101.060192 C400.317914,97.0750705 399.072564,93.6503567 396.581863,90.7860505 C394.091162,87.9217444 390.60418,85.9914512 386.120919,84.9951708 L372.297528,81.819527 C360.715769,79.079756 351.718111,74.0049527 345.304556,66.5951173 C338.891001,59.1852819 335.684224,50.1253571 335.684224,39.4153429 C335.684224,27.4599783 339.731613,17.9019133 347.826391,10.741148 C355.921169,3.58038265 366.880254,0 380.703644,0 C394.65157,0 405.704055,3.4558476 413.861101,10.3675428 C422.018146,17.279238 426.096669,26.5882329 426.096669,38.2945275 L398.076283,38.2945275 C398.076283,33.9358008 396.550729,30.5110869 393.49962,28.020386 C390.448512,25.529685 386.058651,24.2843345 380.330039,24.2843345 C374.975032,24.2843345 370.865375,25.529685 368.001069,28.020386 C365.136763,30.5110869 363.70461,34.1848709 363.70461,39.0417378 C363.70461,42.6532542 364.918827,45.8600317 367.34726,48.6620703 C369.775694,51.4641089 373.293809,53.3632684 377.901605,54.3595488 L391.538193,57.5351925 C403.618093,60.2749636 412.771419,65.2252318 418.998172,72.3859971 C425.224924,79.5467624 428.3383,88.6689547 428.3383,99.7525741 C428.3383,107.722817 426.376873,114.759047 422.454019,120.861265 C418.531165,126.963482 413.051623,131.695814 406.015393,135.05826 C398.979162,138.420707 390.666448,140.10193 381.077249,140.10193 Z"
                    id="Path"></path>
                <path
                    d="M451.688622,138.233904 L438.986047,1.86802573 L461.962763,1.86802573 L468.874459,93.0276814 C468.998994,94.7711721 469.123529,97.2307393 469.248064,100.406383 C469.372599,103.582027 469.528268,106.882206 469.71507,110.306919 C469.901873,113.731633 469.995274,116.813876 469.995274,119.553647 C470.244344,116.813876 470.524548,113.731633 470.835886,110.306919 C471.147223,106.882206 471.489695,103.582027 471.8633,100.406383 C472.236905,97.2307393 472.485975,94.7711721 472.61051,93.0276814 L482.697849,1.86802573 L503.993342,1.86802573 L513.707076,93.0276814 C513.956146,94.7711721 514.23635,97.2307393 514.547688,100.406383 C514.859025,103.582027 515.23263,106.882206 515.668503,110.306919 C516.104376,113.731633 516.446847,116.813876 516.695917,119.553647 C516.820452,116.813876 516.944987,113.731633 517.069522,110.306919 C517.194057,106.882206 517.318593,103.582027 517.443128,100.406383 C517.567663,97.2307393 517.692198,94.7711721 517.816733,93.0276814 L524.16802,1.86802573 L547.331539,1.86802573 L533.694951,138.233904 L504.55375,138.233904 L495.400424,47.6346561 C495.151354,45.5175603 494.902284,42.7466555 494.653214,39.3219416 C494.404144,35.8972278 494.155073,32.3168452 493.906003,28.5807937 C493.656933,24.8447422 493.407863,21.5445634 493.158793,18.6802573 C493.034258,21.5445634 492.847455,24.8447422 492.598385,28.5807937 C492.349315,32.3168452 492.100245,35.8972278 491.851175,39.3219416 C491.602105,42.7466555 491.353035,45.5175603 491.103965,47.6346561 L481.016626,138.233904 L451.688622,138.233904 Z"
                    id="Path"></path>
                <path
                    d="M605.240337,140.10193 C596.149278,140.10193 588.241303,138.389573 581.51641,134.964859 C574.791518,131.540145 569.592179,126.745546 565.918395,120.581061 C562.244611,114.416576 560.407719,107.224677 560.407719,99.0053638 L560.407719,41.0965661 C560.407719,32.8772529 562.244611,25.6853538 565.918395,19.5208689 C569.592179,13.356384 574.791518,8.5617846 581.51641,5.13707076 C588.241303,1.71235692 596.149278,0 605.240337,0 C614.455931,0 622.39504,1.71235692 629.057665,5.13707076 C635.72029,8.5617846 640.888495,13.356384 644.562279,19.5208689 C648.236063,25.6853538 650.072955,32.8772529 650.072955,41.0965661 L650.072955,99.0053638 C650.072955,107.224677 648.236063,114.416576 644.562279,120.581061 C640.888495,126.745546 635.72029,131.540145 629.057665,134.964859 C622.39504,138.389573 614.455931,140.10193 605.240337,140.10193 Z M605.240337,115.817595 C610.844414,115.817595 615.047472,114.354309 617.849511,111.427735 C620.651549,108.501161 622.052569,104.360371 622.052569,99.0053638 L622.052569,41.0965661 C622.052569,35.6170239 620.682683,31.4450998 617.942912,28.5807937 C615.203141,25.7164876 610.968949,24.2843345 605.240337,24.2843345 C599.511725,24.2843345 595.277533,25.7164876 592.537762,28.5807937 C589.797991,31.4450998 588.428105,35.6170239 588.428105,41.0965661 L588.428105,99.0053638 C588.428105,104.360371 589.829125,108.501161 592.631163,111.427735 C595.433202,114.354309 599.63626,115.817595 605.240337,115.817595 Z"
                    id="Shape"></path>
                <path
                    d="M673.423276,138.233904 L673.423276,1.86802573 L717.321881,1.86802573 C727.035615,1.86802573 735.44173,3.54924889 742.540228,6.91169521 C749.638726,10.2741415 755.149402,15.0687409 759.072256,21.2954933 C762.99511,27.5222458 764.956537,34.8698137 764.956537,43.338197 C764.956537,52.1801854 762.808307,60.088161 758.511848,67.0621238 C754.215389,74.0360865 748.393375,79.079756 741.045808,82.1931322 L766.824563,138.233904 L736.375743,138.233904 L714.33304,86.6763939 L701.25686,86.6763939 L701.25686,138.233904 L673.423276,138.233904 Z M701.25686,62.3920594 L717.321881,62.3920594 C723.548633,62.3920594 728.374366,60.8353713 731.79908,57.7219951 C735.223794,54.6086189 736.936151,50.2498922 736.936151,44.645815 C736.936151,38.7926677 735.223794,34.2471384 731.79908,31.0092271 C728.374366,27.7713159 723.548633,26.1523602 717.321881,26.1523602 L701.25686,26.1523602 L701.25686,62.3920594 Z"
                    id="Shape"></path>
                <path
                    d="M785.131215,138.233904 L785.131215,1.86802573 L829.403425,1.86802573 C838.868088,1.86802573 847.118535,3.67378394 854.154766,7.28530035 C861.190996,10.8968168 866.670538,15.97162 870.593392,22.5097101 C874.516246,29.0478001 876.477673,36.7378394 876.477673,45.5798278 L876.477673,94.3352994 C876.477673,103.052753 874.516246,110.711658 870.593392,117.312016 C866.670538,123.912374 861.190996,129.049444 854.154766,132.723228 C847.118535,136.397012 838.868088,138.233904 829.403425,138.233904 L785.131215,138.233904 Z M813.151601,113.015557 L829.403425,113.015557 C835.007502,113.015557 839.584165,111.272066 843.133414,107.785085 C846.682663,104.298103 848.457287,99.8148416 848.457287,94.3352994 L848.457287,45.5798278 C848.457287,40.1002857 846.682663,35.6481577 843.133414,32.2234439 C839.584165,28.79873 835.007502,27.0863731 829.403425,27.0863731 L813.151601,27.0863731 L813.151601,113.015557 Z"
                    id="Shape"></path>
                <path
                    d="M45.6732291,386.891808 C36.519903,386.891808 28.5185262,385.179451 21.6690985,381.754737 C14.8196708,378.330024 9.49579747,373.535424 5.69747848,367.370939 C1.89915949,361.206454 -1.19645036e-13,354.014555 -1.19645036e-13,345.795242 L-1.19645036e-13,287.886444 C-1.19645036e-13,279.542596 1.89915949,272.319563 5.69747848,266.217346 C9.49579747,260.115129 14.8196708,255.351663 21.6690985,251.926949 C28.5185262,248.502235 36.519903,246.789878 45.6732291,246.789878 C54.8265552,246.789878 62.7967983,248.502235 69.5839585,251.926949 C76.3711186,255.351663 81.6638582,260.101021 85.4621772,266.175023 C89.2604962,272.249026 91.1596557,279.486166 91.1596557,287.886444 L63.1392697,287.886444 C63.1392697,282.406902 61.6020402,278.234978 58.5275812,275.370672 C55.4531222,272.506366 51.1255292,271.074213 45.5448024,271.074213 C39.9640755,271.074213 35.6481577,272.519014 32.597049,275.408616 C29.5459403,278.298219 28.020386,282.457495 28.020386,287.886444 L28.020386,345.795242 C28.020386,351.14052 29.5459403,355.278878 32.597049,358.210316 C35.6481577,361.141755 39.9640755,362.607474 45.5448024,362.607474 C51.1255292,362.607474 55.4531222,361.134944 58.5275812,358.189885 C61.6020402,355.244825 63.1392697,351.087982 63.1392697,345.719354 L63.1392697,334.02668 L42.9645918,334.02668 L42.9645918,310.302753 L91.1596557,310.302753 L91.1596557,345.795242 C91.1596557,354.067094 89.2604962,361.272127 85.4621772,367.410343 C81.6638582,373.548559 76.3711186,378.330024 69.5839585,381.754737 C62.7967983,385.179451 54.8265552,386.891808 45.6732291,386.891808 Z"
                    id="Path"></path>
                <polygon id="Path"
                    points="115.817595 385.023782 115.817595 248.657904 199.878753 248.657904 199.878753 272.942239 143.277574 272.942239 143.277574 303.577861 193.340663 303.577861 193.340663 326.74138 143.277574 326.74138 143.277574 360.739448 199.878753 360.739448 199.878753 385.023782"></polygon>
                <path
                    d="M224.163088,385.023782 L224.163088,248.657904 L256.853538,248.657904 L292.159224,354.201358 C291.785619,349.593561 291.349747,344.269688 290.851606,338.229738 C290.353466,332.189788 289.948727,326.149838 289.63739,320.109888 C289.326052,314.069938 289.170383,308.932868 289.170383,304.698676 L289.170383,248.657904 L313.828323,248.657904 L313.828323,385.023782 L281.137873,385.023782 L246.205791,279.480329 C246.579397,283.46545 246.953002,288.197782 247.326607,293.677324 C247.700212,299.156866 248.042683,304.698676 248.354021,310.302753 C248.665359,315.90683 248.821027,320.888232 248.821027,325.246959 L248.821027,385.023782 L224.163088,385.023782 Z"
                    id="Path"></path>
                <polygon id="Path"
                    points="339.980683 385.023782 339.980683 248.657904 424.041841 248.657904 424.041841 272.942239 367.440661 272.942239 367.440661 303.577861 417.503751 303.577861 417.503751 326.74138 367.440661 326.74138 367.440661 360.739448 424.041841 360.739448 424.041841 385.023782"></polygon>
                <path
                    d="M449.260188,385.023782 L449.260188,248.657904 L493.158793,248.657904 C502.872527,248.657904 511.278643,250.339127 518.37714,253.701574 C525.475638,257.06402 530.986314,261.858619 534.909168,268.085372 C538.832022,274.312124 540.793449,281.659692 540.793449,290.128075 C540.793449,298.970064 538.64522,306.878039 534.34876,313.852002 C530.052301,320.825965 524.230288,325.869634 516.88272,328.98301 L542.661475,385.023782 L512.212656,385.023782 L490.169952,333.466272 L477.093772,333.466272 L477.093772,385.023782 L449.260188,385.023782 Z M477.093772,309.181938 L493.158793,309.181938 C499.385546,309.181938 504.211279,307.62525 507.635992,304.511873 C511.060706,301.398497 512.773063,297.03977 512.773063,291.435693 C512.773063,285.582546 511.060706,281.037017 507.635992,277.799105 C504.211279,274.561194 499.385546,272.942239 493.158793,272.942239 L477.093772,272.942239 L477.093772,309.181938 Z"
                    id="Shape"></path>
                <path
                    d="M553.869629,385.023782 L587.30729,248.657904 L622.799779,248.657904 L656.611045,385.023782 L628.030251,385.023782 L621.492161,354.201358 L588.988513,354.201358 L582.450423,385.023782 L553.869629,385.023782 Z M593.658577,331.785049 L616.635294,331.785049 L610.097204,298.907796 C609.225459,294.175464 608.322579,289.474266 607.388567,284.804202 C606.454554,280.134138 605.738477,276.491487 605.240337,273.876251 C604.742197,276.491487 604.088388,280.103004 603.27891,284.710801 C602.469432,289.318597 601.566553,293.988662 600.570273,298.720994 L593.658577,331.785049 Z"
                    id="Shape"></path>
                <polygon id="Path"
                    points="703.311688 385.023782 703.311688 273.876251 668.753212 273.876251 668.753212 248.657904 765.89055 248.657904 765.89055 273.876251 731.332074 273.876251 731.332074 385.023782"></polygon>
                <path
                    d="M829.403425,386.891808 C820.312366,386.891808 812.404391,385.179451 805.679498,381.754737 C798.954605,378.330024 793.755267,373.535424 790.081483,367.370939 C786.407699,361.206454 784.570807,354.014555 784.570807,345.795242 L784.570807,287.886444 C784.570807,279.667131 786.407699,272.475232 790.081483,266.310747 C793.755267,260.146262 798.954605,255.351663 805.679498,251.926949 C812.404391,248.502235 820.312366,246.789878 829.403425,246.789878 C838.619018,246.789878 846.558128,248.502235 853.220753,251.926949 C859.883378,255.351663 865.051582,260.146262 868.725366,266.310747 C872.39915,272.475232 874.236042,279.667131 874.236042,287.886444 L874.236042,345.795242 C874.236042,354.014555 872.39915,361.206454 868.725366,367.370939 C865.051582,373.535424 859.883378,378.330024 853.220753,381.754737 C846.558128,385.179451 838.619018,386.891808 829.403425,386.891808 Z M829.403425,362.607474 C835.007502,362.607474 839.21056,361.144187 842.012598,358.217613 C844.814637,355.29104 846.215656,351.150249 846.215656,345.795242 L846.215656,287.886444 C846.215656,282.406902 844.845771,278.234978 842.106,275.370672 C839.366229,272.506366 835.132037,271.074213 829.403425,271.074213 C823.674812,271.074213 819.440621,272.506366 816.70085,275.370672 C813.961079,278.234978 812.591193,282.406902 812.591193,287.886444 L812.591193,345.795242 C812.591193,351.150249 813.992212,355.29104 816.794251,358.217613 C819.59629,361.144187 823.799348,362.607474 829.403425,362.607474 Z"
                    id="Shape"></path>
                <path
                    d="M897.586364,385.023782 L897.586364,248.657904 L941.484969,248.657904 C951.198702,248.657904 959.604818,250.339127 966.703316,253.701574 C973.801814,257.06402 979.31249,261.858619 983.235344,268.085372 C987.158198,274.312124 989.119625,281.659692 989.119625,290.128075 C989.119625,298.970064 986.971395,306.878039 982.674936,313.852002 C978.378477,320.825965 972.556463,325.869634 965.208895,328.98301 L990.98765,385.023782 L960.538831,385.023782 L938.496127,333.466272 L925.419947,333.466272 L925.419947,385.023782 L897.586364,385.023782 Z M925.419947,309.181938 L941.484969,309.181938 C947.711721,309.181938 952.537454,307.62525 955.962168,304.511873 C959.386882,301.398497 961.099239,297.03977 961.099239,291.435693 C961.099239,285.582546 959.386882,281.037017 955.962168,277.799105 C952.537454,274.561194 947.711721,272.942239 941.484969,272.942239 L925.419947,272.942239 L925.419947,309.181938 Z"
                    id="Shape"></path>
                <path
                    d="M1121.93625,385.023782 L1121.93625,248.657904 L1168.45009,248.657904 C1178.03929,248.657904 1186.40941,250.451987 1193.56045,254.040153 C1200.71148,257.628319 1206.25329,262.671989 1210.18588,269.171162 C1214.11846,275.670334 1216.08475,283.280593 1216.08475,292.001939 C1216.08475,300.590965 1214.09219,308.154524 1210.10707,314.692614 C1206.12195,321.230704 1200.58987,326.305507 1193.51083,329.917023 C1186.43179,333.52854 1178.07821,335.334298 1168.45009,335.334298 L1149.95664,335.334298 L1149.95664,385.023782 L1121.93625,385.023782 Z M1149.95664,311.049963 L1168.45009,311.049963 C1174.38497,311.049963 1179.13773,309.244205 1182.70839,305.632689 C1186.27904,302.021172 1188.06437,297.498021 1188.06437,292.063233 C1188.06437,286.538936 1186.27904,281.97103 1182.70839,278.359513 C1179.13773,274.747997 1174.38497,272.942239 1168.45009,272.942239 L1149.95664,272.942239 L1149.95664,311.049963 Z"
                    id="Shape"></path>
                <path
                    d="M1233.831,385.023782 L1233.831,248.657904 L1277.7296,248.657904 C1287.44333,248.657904 1295.84945,250.339127 1302.94795,253.701574 C1310.04645,257.06402 1315.55712,261.858619 1319.47998,268.085372 C1323.40283,274.312124 1325.36426,281.659692 1325.36426,290.128075 C1325.36426,298.970064 1323.21603,306.878039 1318.91957,313.852002 C1314.62311,320.825965 1308.80109,325.869634 1301.45353,328.98301 L1327.23228,385.023782 L1296.78346,385.023782 L1274.74076,333.466272 L1261.66458,333.466272 L1261.66458,385.023782 L1233.831,385.023782 Z M1261.66458,309.181938 L1277.7296,309.181938 C1283.95635,309.181938 1288.78209,307.62525 1292.2068,304.511873 C1295.63151,301.398497 1297.34387,297.03977 1297.34387,291.435693 C1297.34387,285.582546 1295.63151,281.037017 1292.2068,277.799105 C1288.78209,274.561194 1283.95635,272.942239 1277.7296,272.942239 L1261.66458,272.942239 L1261.66458,309.181938 Z"
                    id="Shape"></path>
                <path
                    d="M1389.81114,386.891808 C1380.72009,386.891808 1372.81211,385.179451 1366.08722,381.754737 C1359.36232,378.330024 1354.16299,373.535424 1350.4892,367.370939 C1346.81542,361.206454 1344.97853,354.014555 1344.97853,345.795242 L1344.97853,287.886444 C1344.97853,279.667131 1346.81542,272.475232 1350.4892,266.310747 C1354.16299,260.146262 1359.36232,255.351663 1366.08722,251.926949 C1372.81211,248.502235 1380.72009,246.789878 1389.81114,246.789878 C1399.02674,246.789878 1406.96585,248.502235 1413.62847,251.926949 C1420.2911,255.351663 1425.4593,260.146262 1429.13309,266.310747 C1432.80687,272.475232 1434.64376,279.667131 1434.64376,287.886444 L1434.64376,345.795242 C1434.64376,354.014555 1432.80687,361.206454 1429.13309,367.370939 C1425.4593,373.535424 1420.2911,378.330024 1413.62847,381.754737 C1406.96585,385.179451 1399.02674,386.891808 1389.81114,386.891808 Z M1389.81114,362.607474 C1395.41522,362.607474 1399.61828,361.144187 1402.42032,358.217613 C1405.22236,355.29104 1406.62338,351.150249 1406.62338,345.795242 L1406.62338,287.886444 C1406.62338,282.406902 1405.25349,278.234978 1402.51372,275.370672 C1399.77395,272.506366 1395.53976,271.074213 1389.81114,271.074213 C1384.08253,271.074213 1379.84834,272.506366 1377.10857,275.370672 C1374.3688,278.234978 1372.99891,282.406902 1372.99891,287.886444 L1372.99891,345.795242 C1372.99891,351.150249 1374.39993,355.29104 1377.20197,358.217613 C1380.00401,361.144187 1384.20707,362.607474 1389.81114,362.607474 Z"
                    id="Shape"></path>
            </g>
        </g>
    </g>
</svg>
