<svg height="2048" viewBox="0 0 2048 2048" width="2048" xmlns="http://www.w3.org/2000/svg" xmlns:xlink="http://www.w3.org/1999/xlink"><linearGradient id="a" x1=".003762%" x2="99.984689%" y1="49.989781%" y2="49.989781%"><stop offset="0" stop-color="#f74c00"/><stop offset=".33" stop-color="#f74c00"/><stop offset="1" stop-color="#f49600"/></linearGradient><linearGradient id="b" x1=".00038%" x2="100%" y1="50.000084%" y2="50.000084%"><stop offset="0" stop-color="#cc3a00"/><stop offset=".15" stop-color="#cc3a00"/><stop offset=".74" stop-color="#f74c00"/><stop offset="1" stop-color="#f74c00"/></linearGradient><linearGradient id="c" x1="-.003094%" x2="99.996906%" y1="49.999941%" y2="49.999941%"><stop offset="0" stop-color="#cc3a00"/><stop offset=".148874563" stop-color="#cc3a00"/><stop offset=".74" stop-color="#f74c00"/><stop offset="1" stop-color="#f74c00"/></linearGradient><g fill="none" fill-rule="evenodd"><g fill-rule="nonzero"><path d="m512.049304 0c-282.320071 0-512.049304 229.721738-512.049304 511.95088v1024.29496c0 282.12347 229.72186 511.75428 512.049304 511.75428h1024.196416c282.12347 0 511.75428-229.62589 511.75428-511.85258v-1024.19666c0-282.22177-229.6259-511.95088-511.85258-511.95088z" fill="#000"/><path d="m32.5533503 1095.64624 585.5172257 325.67999c19.082447 10.42051 43.306206 10.42051 62.388653 0l585.517231-325.67999c31.19432-17.32248 43.3062-57.17805 25.98372-88.37237v-1.75928l-587.266798-973.4368918c-19.082447-31.19432621-58.868724-41.54624167-88.372376-22.53308503-8.661241 5.21025623-17.322483 13.87149743-22.533085 22.53308503l-585.44793657 973.5061818c-17.32248236 31.19433-6.90196987 70.98234 24.22375937 90.06305zm682.5404497-796.834187 429.61489 717.116127-429.61489 239.06758zm-131.678582 0v956.183707l-427.847992-239.06758z" fill="#fcc201" transform="translate(374 215)"/><path d="m285.191556 0c-110.488159 0-210.8732825 13.283586-285.191556 34.9304725v184.9103245c74.3182735 21.647797 174.703397 34.930472 285.191556 34.930472 126.456531 0 239.668663-17.399165 315.713912-44.824812v-165.1189109c-76.045249-27.4265588-189.257381-44.8275461-315.713912-44.8275461" fill="#a52b00" transform="translate(745.984748 1388.897589)"/><path d="m97.6739089 110.784342-12.9509495-26.8305474c.0665273-1.01887.1193846-2.0386514.1193846-3.062078 0-30.4157302-31.628714-58.4483252-84.842344-80.8917166v161.785256c24.8292605-10.473036 44.972448-22.160878 59.3787959-34.744561-4.2395199 17.048302-18.7406464 51.5386-30.3018135 75.793721-19.0012876 34.690792-25.88184982 64.889625-24.99967973 66.385122.5622923.941407 7.04460203-9.058647 16.60357113-25.263054 22.2456322-31.697064 64.3984167-92.21047 72.8236879-107.624752 9.5434763-17.473894 4.1693472-25.54739 4.1693472-25.54739" fill="#a52b00" transform="translate(1363.110116 1428.356474)"/><path d="m6.06135561 94.9754527c0 5.8580473 1.17835323 11.6286053 3.45212842 17.2870703l-7.75635294 13.806691s-6.21346662 8.06165 4.72799425 25.068941c9.65101366 14.995981 57.99265886 73.696745 83.50724156 104.43691 10.9596871 15.759677 18.3897831 25.467193 19.0404751 24.529432 1.024338-1.488207-6.813124-31.076447-28.5784836-64.833123-10.155892-18.130965-22.2857308-42.150962-29.5654567-59.893699 20.3254541 12.864373 46.9181434 24.533078 78.5131383 34.575964v-189.953639c-76.1363825 24.1940615-123.34068439 57.8085696-123.34068439 94.9754527" fill="#a52b00" transform="translate(616.582708 1416.046191)"/><path d="m681.962142 483.709976-39.911507 28.901435v12.38633l39.223377 29.589565c4.128777 2.752517 6.193165 7.569423 5.505035 12.386329-.688129 4.816906-4.128776 8.945683-8.257553 11.010071l-45.416541 20.643882c-.688129 4.128777-1.376259 8.257553-2.752518 11.6982l33.030212 36.470859c2.752518 3.440647 4.128777 8.945683 2.752518 13.074459-2.064388 4.816906-5.505035 8.257553-10.321941 9.633812l-48.857189 12.386329c-1.376259 3.440648-3.440647 6.881295-4.816906 11.010071l24.08453 41.287765c2.752518 4.128776 2.752518 9.633812 0 13.762588-2.064388 4.128777-6.881294 6.881294-11.6982 7.569424l-50.233447 2.752517c-2.064389 2.752518-4.816906 6.193165-6.881295 9.633812l15.138848 45.416542c2.064388 4.816906.688129 9.633811-2.752518 13.762588-2.752518 3.440647-8.257553 5.505035-13.074459 4.816906l-49.545318-6.881294c-2.752517 2.752517-5.505035 5.505035-8.945682 8.257553l6.193165 48.169059c.688129 4.816906-1.376259 9.633812-5.505036 12.386329-4.128776 2.752518-9.633812 4.128777-14.450718 2.064388l-46.7928-15.826976c-3.440647 2.752518-6.881294 4.816906-10.321941 6.881294l-4.128776 47.48093c0 5.505035-3.440648 9.633811-7.569424 11.6982-4.816906 2.064388-10.321941 2.064388-14.450718 0l-42.664023-24.772659c-.68813.688129-1.376259.688129-2.064389.688129l-77.070494 86.704307s-8.257553 12.38633-32.342083-2.75252c-20.643882-13.762586-105.2838-86.704304-150.012212-125.239552-22.0201413-15.826976-35.7827296-26.837047-35.0946002-28.213306 2.0643883-2.064388 40.5996352 4.816906 87.3924362 35.78273 41.975894 23.3964 105.971929 52.985965 112.165094 44.728412 0 0 11.010071-10.321941 17.891365-30.277694.688129.688129.688129.688129 0 0 0 0-216.7607657-379.159308-69.501071-761.071133 4.128776-42.6640238-20.643882-66.0604239-20.643882-66.0604239-6.193165-8.257553-66.748554 19.955753-106.6600597 41.9758939-44.728412 29.589565-81.19927095 36.470859-82.57552978 34.406471-.68812941-1.376259 12.38632948-11.6982 33.71834128-26.837047 41.9758943-36.470859 122.4870362-104.5956711 142.4427892-117.67012996 22.70827-15.13884712 30.965823-2.75251766 30.965823-2.75251766l69.501071 79.13488272c2.752518.6881294 5.505036 1.3762588 8.945683 1.3762588l37.847117-30.9658237c3.440648-3.440647 8.945683-4.1287764 13.762589-2.7525176s8.257553 4.8169059 9.633812 9.6338118l12.386329 46.7928006c3.440647 1.376258 7.569424 2.752517 11.010071 4.128776l44.040282-23.3964c4.128777-2.7525177 9.633812-2.7525177 14.450718 0 4.128776 2.0643882 6.881294 6.1931647 6.881294 11.0100706l2.752518 48.1690594c3.440647 2.064388 6.881294 4.816906 10.321941 6.881294l47.48093-15.138847c4.816905-1.376259 10.321941-.68813 13.762588 2.064388 4.128776 3.440647 6.193165 8.257553 5.505035 13.074459l-7.569423 47.480929c2.752517 2.752518 5.505035 5.505036 8.945682 8.257553l49.545318-5.505035c4.816906-.688129 9.633812 1.376259 13.074459 4.816906 3.440647 4.128776 4.128776 8.945682 2.064388 13.762588l-16.515106 44.728412c2.064388 3.440647 4.816906 6.881294 6.881294 10.321941l49.545318 3.440648c5.505035 0 9.633812 3.440647 11.6982 7.569423 2.752518 4.128777 2.752518 9.633812 0 13.762588l-25.460788 41.287765c1.376259 3.440647 2.752517 6.881294 4.128776 11.010071l48.169059 12.386329c4.816906 1.376259 8.945683 4.816906 10.321941 9.633812 1.376259 4.816906 0 9.633812-3.440647 13.762588l-33.718341 35.78273c.688129 3.440647 2.064388 7.569424 2.752518 11.6982l44.040282 21.332012c4.816906 2.064388 7.569424 6.193165 8.257553 11.010071.68813 4.816905-2.064388 9.633811-6.193164 12.386329z" fill="url(#a)" transform="matrix(-.0871559 -.99619468 -.99619468 .0871559 1558.558038 1744.665354)"/></g><path d="m72.2987602 82.4764297c-1.5164577-1.2940925-2.3111399-2.0614347-2.3111399-2.0614347l129.9031917-10.6416324c-105.9633919-139.7902401-190.85494789-28.4317588-199.890812-15.9811309v28.684198z" fill="#000" transform="translate(824.89705 1573.895495)"/><path d="m122.526864 83.9716657c1.515546-1.2940925 2.31114-2.0632573 2.31114-2.0632573l-124.838004-9.1342881c106.013515-145.527991 185.792494-29.9391031 194.827447-17.4884752v28.6860206z" fill="#000" transform="translate(1045.145212 1570.894738)"/><path d="m243.519058 36.5277199s-56.496207 14.1240517-115.914631 102.5211341l-5.844435 24.595331s146.110879 80.117466-18.507378 193.596915c0 0 20.455523-35.310129-4.626845-130.038682 0 0-66.7239682 43.589745-64.5323051 131.256273 0 0-101.0600249-84.013756 44.8073364-212.104293 0 0 52.3563987-135.396082 164.6182577-146.354398z" fill="url(#b)" fill-rule="nonzero" transform="matrix(-.00000005 -1 -1 .00000005 1403.71846 1759.600412)"/><path d="m15.0977457 19.2858259s39.6302155-43.3931083 79.2622536 0c0 0 31.1402397 57.8623383 0 86.7898621 0 0-50.9544361 40.503272-79.2622536 0 0 0-33.9699278-31.8246506 0-86.7898621" fill="#000" transform="translate(1089.028921 1424.370102)"/><path d="m44.4857963 30.5970854c0 16.8970203-9.9608668 30.5952627-22.2438095 30.5952627-12.2820313 0-22.2419868-13.6982424-22.2419868-30.5952627s9.9599555-30.5970854 22.2419868-30.5970854c12.2829427 0 22.2438095 13.7000651 22.2438095 30.5970854" fill="#fff" fill-rule="nonzero" transform="translate(1105.522829 1429.156624)"/><path d="m22.738668 6.72240679s67.9817769-30.09949769 86.536511 37.08304051c0 0 19.435994 78.3071767-55.8273318 82.7271407 0 0-95.9724507-18.484562-30.7091792-119.81018121" fill="#000" transform="translate(904.505605 1425.084373)"/><path d="m45.8801354 31.5567187c0 17.4237707-10.27072 31.5567188-22.940979 31.5567188-12.6657024 0-22.9391564-14.1329481-22.9391564-31.5567188 0-17.4283273 10.273454-31.5567187 22.9391564-31.5567187 12.670259 0 22.940979 14.1283914 22.940979 31.5567187" fill="#fff" fill-rule="nonzero" transform="translate(915.50813 1429.306082)"/><path d="m79.9360126 195.827069c-159.2320213-124.161768-31.3671834-182.9752369-31.3671834-182.9752369 7.8417958 69.704852 54.2390878 119.1517319 54.2390878 119.1517319 10.673556-83.6458229 11.544866-132.003564 11.544866-132.003564 147.687156 111.963419 13.940971 202.797554 13.940971 202.797554 8.277451 22.654077 39.862462 45.961637 69.051369 63.170022l20.4758 69.487024c-135.9244614-79.942752-137.8849104-139.627531-137.8849104-139.627531z" fill="url(#c)" fill-rule="nonzero" transform="matrix(-.00000007 -1 -1 .00000007 1021.026947 1769.761394)"/></g></svg>